<?xml version="1.0" encoding="UTF-8"?>
<svg width="700pt" height="700pt" version="1.1" viewBox="0 0 700 700" xmlns="http://www.w3.org/2000/svg">
 <path fill="#fff" d="m148.77 0c-4.6445 0-9.0977 1.8477-12.379 5.1328-3.2852 3.2852-5.125 7.7422-5.1211 12.383v524.98c0 4.6406 1.8438 9.0938 5.125 12.375s7.7344 5.125 12.375 5.125h402.45c4.6445 0.003906 9.0977-1.8359 12.383-5.1211 3.2852-3.2812 5.1328-7.7344 5.1328-12.379v-361.57c-0.007813-0.55469-0.042969-1.1094-0.10156-1.6562-0.027343-0.30469-0.0625-0.60547-0.10156-0.90625-0.007812-0.042969-0.011719-0.082031-0.019531-0.12109-0.019531-0.14063-0.042969-0.28516-0.070313-0.42578-0.035156-0.19922-0.074218-0.40234-0.11719-0.59766-0.007813-0.011719-0.011719-0.023438-0.019531-0.035156-0.0625-0.31641-0.13672-0.62891-0.21875-0.9375-0.007813-0.011719-0.011719-0.023438-0.019532-0.035156-0.039062-0.13672-0.078125-0.27344-0.11719-0.41016-0.0625-0.19531-0.125-0.38672-0.19141-0.58203-0.003906-0.007812-0.011718-0.019531-0.015624-0.03125-0.10938-0.31641-0.23047-0.62891-0.35938-0.94141-0.12109-0.29688-0.25391-0.59375-0.39453-0.88672-0.011719-0.023437-0.023437-0.046875-0.035156-0.070313l-0.1875-0.375c-0.09375-0.17969-0.19141-0.35547-0.29297-0.53125-0.125-0.22266-0.25391-0.44531-0.39062-0.66406-0.046875-0.082031-0.089843-0.16016-0.13672-0.23828-0.078124-0.12109-0.15625-0.24219-0.23828-0.35938-0.10938-0.16797-0.22266-0.33203-0.33984-0.49609-0.085938-0.11719-0.17188-0.23047-0.25781-0.34375-0.12891-0.16016-0.26172-0.32031-0.39453-0.47656-0.089844-0.10938-0.17969-0.21875-0.27344-0.32422-0.046875-0.046875-0.089844-0.089844-0.13672-0.13672-0.18359-0.20703-0.37109-0.41406-0.5625-0.61328l-159.2-163.43c-0.14453-0.15234-0.29297-0.30078-0.44141-0.44531-0.10156-0.09375-0.20703-0.18359-0.30859-0.27344-0.15625-0.14453-0.31641-0.28906-0.48047-0.42969-0.082032-0.066406-0.16797-0.13672-0.25781-0.20312-0.015625-0.019531-0.035156-0.035156-0.050781-0.054687-0.15234-0.11328-0.30469-0.22656-0.46094-0.33984-0.8125-0.60938-1.6758-1.1484-2.582-1.6055-0.035156-0.023437-0.066406-0.046875-0.10156-0.070313-0.074219-0.046874-0.14844-0.089843-0.22266-0.13672-0.19141-0.089844-0.38672-0.17578-0.58203-0.25781-0.16797-0.070312-0.33984-0.13672-0.51172-0.20312-0.25781-0.10938-0.51953-0.21094-0.78516-0.30859-0.070312-0.023437-0.13672-0.046874-0.20703-0.070312-0.125-0.039062-0.25-0.078125-0.375-0.11719-0.078125-0.023437-0.15625-0.046874-0.23828-0.070312-0.25391-0.070312-0.51172-0.13281-0.76953-0.1875-1.3203-0.32812-2.6719-0.5-4.0312-0.51172-0.023437-0.0078124-0.046874-0.011719-0.070312-0.019531h-0.25781zm17.5 35.016h208.23v145.91h-0.003906c0 4.6445 1.8477 9.0977 5.1328 12.379s7.7422 5.125 12.387 5.1211h141.7v326.56h-367.45zm243.25 25.531 100.23 102.88h-100.23z"/>
</svg>
